{
	"asset":{
		"generator":"Khronos glTF Blender I/O v3.5.30",
		"version":"2.0"
	},
	"scene":0,
	"scenes":[
		{
			"name":"Scene",
			"nodes":[
				0,
				1,
				2,
				3
			]
		}
	],
	"nodes":[
		{
			"mesh":0,
			"name":"sunflower",
			"rotation":[
				0.70710688829422,
				0,
				0,
				0.7071066498756409
			],
			"scale":[
				0.30000001192092896,
				0.29999998211860657,
				0.29999998211860657
			],
			"translation":[
				0,
				0.39152565598487854,
				0
			]
		},
		{
			"mesh":1,
			"name":"Text",
			"rotation":[
				0.8343798518180847,
				-0.0020186537876725197,
				-0.002858457388356328,
				0.5511789321899414
			],
			"translation":[
				-1.191026210784912,
				2.9233667850494385,
				-0.6089969873428345
			]
		},
		{
			"mesh":2,
			"name":"Cube",
			"translation":[
				-2.628878355026245,
				2.1153767108917236,
				-1.0451560020446777
			]
		},
		{
			"mesh":3,
			"name":"Cube.001",
			"translation":[
				2.8417136669158936,
				1.5432376861572266,
				-0.5331189632415771
			]
		}
	],
	"materials":[
		{
			"name":"None",
			"pbrMetallicRoughness":{
				"baseColorTexture":{
					"index":0
				},
				"metallicFactor":0
			}
		}
	],
	"meshes":[
		{
			"name":"sunflower",
			"primitives":[
				{
					"attributes":{
						"POSITION":0,
						"TEXCOORD_0":1,
						"NORMAL":2
					},
					"indices":3,
					"material":0
				}
			]
		},
		{
			"name":"Text",
			"primitives":[
				{
					"attributes":{
						"POSITION":4,
						"TEXCOORD_0":5,
						"NORMAL":6
					},
					"indices":7,
					"material":0
				}
			]
		},
		{
			"name":"Cube.001",
			"primitives":[
				{
					"attributes":{
						"POSITION":8,
						"TEXCOORD_0":9,
						"NORMAL":10
					},
					"indices":11,
					"material":0
				}
			]
		},
		{
			"name":"Cube.002",
			"primitives":[
				{
					"attributes":{
						"POSITION":12,
						"TEXCOORD_0":13,
						"NORMAL":14
					},
					"indices":11,
					"material":0
				}
			]
		}
	],
	"textures":[
		{
			"sampler":0,
			"source":0
		}
	],
	"images":[
		{
			"bufferView":4,
			"mimeType":"image/png",
			"name":"PUSHILIN_sunflower"
		}
	],
	"accessors":[
		{
			"bufferView":0,
			"componentType":5126,
			"count":692,
			"max":[
				0.6084539890289307,
				0.45397499203681946,
				1.3026560544967651
			],
			"min":[
				-0.6065940260887146,
				-0.4599300026893616,
				-0.6320639848709106
			],
			"type":"VEC3"
		},
		{
			"bufferView":1,
			"componentType":5126,
			"count":692,
			"type":"VEC2"
		},
		{
			"bufferView":2,
			"componentType":5126,
			"count":692,
			"type":"VEC3"
		},
		{
			"bufferView":3,
			"componentType":5123,
			"count":1020,
			"type":"SCALAR"
		},
		{
			"bufferView":5,
			"componentType":5126,
			"count":4912,
			"max":[
				3.427000045776367,
				0.07999999821186066,
				2.009000062942505
			],
			"min":[
				0.06100000441074371,
				-0.07999999821186066,
				-0.6820000410079956
			],
			"type":"VEC3"
		},
		{
			"bufferView":6,
			"componentType":5126,
			"count":4912,
			"type":"VEC2"
		},
		{
			"bufferView":7,
			"componentType":5126,
			"count":4912,
			"type":"VEC3"
		},
		{
			"bufferView":8,
			"componentType":5123,
			"count":14484,
			"type":"SCALAR"
		},
		{
			"bufferView":9,
			"componentType":5126,
			"count":24,
			"max":[
				1,
				1,
				1
			],
			"min":[
				-1,
				-1,
				-1
			],
			"type":"VEC3"
		},
		{
			"bufferView":10,
			"componentType":5126,
			"count":24,
			"type":"VEC2"
		},
		{
			"bufferView":11,
			"componentType":5126,
			"count":24,
			"type":"VEC3"
		},
		{
			"bufferView":12,
			"componentType":5123,
			"count":36,
			"type":"SCALAR"
		},
		{
			"bufferView":13,
			"componentType":5126,
			"count":24,
			"max":[
				1,
				1,
				1
			],
			"min":[
				-1,
				-1,
				-1
			],
			"type":"VEC3"
		},
		{
			"bufferView":14,
			"componentType":5126,
			"count":24,
			"type":"VEC2"
		},
		{
			"bufferView":15,
			"componentType":5126,
			"count":24,
			"type":"VEC3"
		}
	],
	"bufferViews":[
		{
			"buffer":0,
			"byteLength":8304,
			"byteOffset":0,
			"target":34962
		},
		{
			"buffer":0,
			"byteLength":5536,
			"byteOffset":8304,
			"target":34962
		},
		{
			"buffer":0,
			"byteLength":8304,
			"byteOffset":13840,
			"target":34962
		},
		{
			"buffer":0,
			"byteLength":2040,
			"byteOffset":22144,
			"target":34963
		},
		{
			"buffer":0,
			"byteLength":159079,
			"byteOffset":24184
		},
		{
			"buffer":0,
			"byteLength":58944,
			"byteOffset":183264,
			"target":34962
		},
		{
			"buffer":0,
			"byteLength":39296,
			"byteOffset":242208,
			"target":34962
		},
		{
			"buffer":0,
			"byteLength":58944,
			"byteOffset":281504,
			"target":34962
		},
		{
			"buffer":0,
			"byteLength":28968,
			"byteOffset":340448,
			"target":34963
		},
		{
			"buffer":0,
			"byteLength":288,
			"byteOffset":369416,
			"target":34962
		},
		{
			"buffer":0,
			"byteLength":192,
			"byteOffset":369704,
			"target":34962
		},
		{
			"buffer":0,
			"byteLength":288,
			"byteOffset":369896,
			"target":34962
		},
		{
			"buffer":0,
			"byteLength":72,
			"byteOffset":370184,
			"target":34963
		},
		{
			"buffer":0,
			"byteLength":288,
			"byteOffset":370256,
			"target":34962
		},
		{
			"buffer":0,
			"byteLength":192,
			"byteOffset":370544,
			"target":34962
		},
		{
			"buffer":0,
			"byteLength":288,
			"byteOffset":370736,
			"target":34962
		}
	],
	"samplers":[
		{
			"magFilter":9729,
			"minFilter":9987
		}
	],
	"buffers":[
		{
			"byteLength":371024,
			"uri":"data:application/octet-stream;base64,"
		}
	]
}
